<svg xmlns="http://www.w3.org/2000/svg" width="640" height="400" font-family="Consolas" font-size="12"><rect width="640" height="400" fill="#161b22"/><text x="320" y="20" text-anchor="middle" fill="#e6edf3">count_primes_sieve @ 4000000: speedup vs threads</text><line x1="60" y1="350" x2="620" y2="350" stroke="#30363d"/><text x="52" y="354" text-anchor="end" fill="#8b949e">0</text><line x1="60" y1="246.66666666666669" x2="620" y2="246.66666666666669" stroke="#30363d"/><text x="52" y="250.66666666666669" text-anchor="end" fill="#8b949e">1</text><line x1="60" y1="143.33333333333334" x2="620" y2="143.33333333333334" stroke="#30363d"/><text x="52" y="147.33333333333334" text-anchor="end" fill="#8b949e">2</text><line x1="60" y1="40" x2="620" y2="40" stroke="#30363d"/><text x="52" y="44" text-anchor="end" fill="#8b949e">3</text><line x1="77.5" y1="246.66666666666669" x2="620" y2="-2956.6666666666665" stroke="#E5D75A" stroke-dasharray="6 4"/><polyline points="77.5,246.66666666666669 95,238.3523944302253 130,237.0056870813332 200,133.04489409353113 340,140.28433559821124 480,133.8476558195621 620,128.14202751287544" fill="none" stroke="#00C896" stroke-width="2.5"/><circle cx="77.5" cy="246.66666666666669" r="4" fill="#00C896"/><text x="77.5" y="236.66666666666669" text-anchor="middle" fill="#e6edf3">1.0x</text><text x="77.5" y="368" text-anchor="middle" fill="#8b949e">1T</text><circle cx="95" cy="238.3523944302253" r="4" fill="#00C896"/><text x="95" y="228.3523944302253" text-anchor="middle" fill="#e6edf3">1.1x</text><text x="95" y="368" text-anchor="middle" fill="#8b949e">2T</text><circle cx="130" cy="237.0056870813332" r="4" fill="#00C896"/><text x="130" y="227.0056870813332" text-anchor="middle" fill="#e6edf3">1.1x</text><text x="130" y="368" text-anchor="middle" fill="#8b949e">4T</text><circle cx="200" cy="133.04489409353113" r="4" fill="#00C896"/><text x="200" y="123.04489409353113" text-anchor="middle" fill="#e6edf3">2.1x</text><text x="200" y="368" text-anchor="middle" fill="#8b949e">8T</text><circle cx="340" cy="140.28433559821124" r="4" fill="#00C896"/><text x="340" y="130.28433559821124" text-anchor="middle" fill="#e6edf3">2.0x</text><text x="340" y="368" text-anchor="middle" fill="#8b949e">16T</text><circle cx="480" cy="133.8476558195621" r="4" fill="#00C896"/><text x="480" y="123.8476558195621" text-anchor="middle" fill="#e6edf3">2.1x</text><text x="480" y="368" text-anchor="middle" fill="#8b949e">24T</text><circle cx="620" cy="128.14202751287544" r="4" fill="#00C896"/><text x="620" y="118.14202751287544" text-anchor="middle" fill="#e6edf3">2.1x</text><text x="620" y="368" text-anchor="middle" fill="#8b949e">32T</text></svg>