<svg xmlns="http://www.w3.org/2000/svg" width="640" height="400" font-family="Consolas" font-size="12"><rect width="640" height="400" fill="#161b22"/><text x="320" y="20" text-anchor="middle" fill="#e6edf3">dot_reduction @ 4194304: speedup vs threads</text><line x1="60" y1="350" x2="620" y2="350" stroke="#30363d"/><text x="52" y="354" text-anchor="end" fill="#8b949e">0</text><line x1="60" y1="288" x2="620" y2="288" stroke="#30363d"/><text x="52" y="292" text-anchor="end" fill="#8b949e">1</text><line x1="60" y1="226" x2="620" y2="226" stroke="#30363d"/><text x="52" y="230" text-anchor="end" fill="#8b949e">2</text><line x1="60" y1="164" x2="620" y2="164" stroke="#30363d"/><text x="52" y="168" text-anchor="end" fill="#8b949e">3</text><line x1="60" y1="102" x2="620" y2="102" stroke="#30363d"/><text x="52" y="106" text-anchor="end" fill="#8b949e">4</text><line x1="60" y1="40" x2="620" y2="40" stroke="#30363d"/><text x="52" y="44" text-anchor="end" fill="#8b949e">5</text><line x1="77.5" y1="288" x2="620" y2="-1634" stroke="#E5D75A" stroke-dasharray="6 4"/><polyline points="77.5,288 95,256.8652153044078 130,234.49212086851958 200,199.33098965622534 340,149.0829028853732 480,58.44239092701878 620,152.56614944572308" fill="none" stroke="#00C896" stroke-width="2.5"/><circle cx="77.5" cy="288" r="4" fill="#00C896"/><text x="77.5" y="278" text-anchor="middle" fill="#e6edf3">1.0x</text><text x="77.5" y="368" text-anchor="middle" fill="#8b949e">1T</text><circle cx="95" cy="256.8652153044078" r="4" fill="#00C896"/><text x="95" y="246.8652153044078" text-anchor="middle" fill="#e6edf3">1.5x</text><text x="95" y="368" text-anchor="middle" fill="#8b949e">2T</text><circle cx="130" cy="234.49212086851958" r="4" fill="#00C896"/><text x="130" y="224.49212086851958" text-anchor="middle" fill="#e6edf3">1.9x</text><text x="130" y="368" text-anchor="middle" fill="#8b949e">4T</text><circle cx="200" cy="199.33098965622534" r="4" fill="#00C896"/><text x="200" y="189.33098965622534" text-anchor="middle" fill="#e6edf3">2.4x</text><text x="200" y="368" text-anchor="middle" fill="#8b949e">8T</text><circle cx="340" cy="149.0829028853732" r="4" fill="#00C896"/><text x="340" y="139.0829028853732" text-anchor="middle" fill="#e6edf3">3.2x</text><text x="340" y="368" text-anchor="middle" fill="#8b949e">16T</text><circle cx="480" cy="58.44239092701878" r="4" fill="#00C896"/><text x="480" y="48.44239092701878" text-anchor="middle" fill="#e6edf3">4.7x</text><text x="480" y="368" text-anchor="middle" fill="#8b949e">24T</text><circle cx="620" cy="152.56614944572308" r="4" fill="#00C896"/><text x="620" y="142.56614944572308" text-anchor="middle" fill="#e6edf3">3.2x</text><text x="620" y="368" text-anchor="middle" fill="#8b949e">32T</text></svg>