<svg xmlns="http://www.w3.org/2000/svg" width="640" height="400" font-family="Consolas" font-size="12"><rect width="640" height="400" fill="#161b22"/><text x="320" y="20" text-anchor="middle" fill="#e6edf3">matmul @ 128: speedup vs threads</text><line x1="60" y1="350" x2="620" y2="350" stroke="#30363d"/><text x="52" y="354" text-anchor="end" fill="#8b949e">0</text><line x1="60" y1="195" x2="620" y2="195" stroke="#30363d"/><text x="52" y="199" text-anchor="end" fill="#8b949e">1</text><line x1="60" y1="40" x2="620" y2="40" stroke="#30363d"/><text x="52" y="44" text-anchor="end" fill="#8b949e">2</text><line x1="77.5" y1="195" x2="620" y2="-4610" stroke="#E5D75A" stroke-dasharray="6 4"/><polyline points="77.5,195 95,178.1118433270193 130,173.49105408834882 200,170.85009907429074 340,170.68597506974277 480,172.5947355060365 620,170.8280805542746" fill="none" stroke="#00C896" stroke-width="2.5"/><circle cx="77.5" cy="195" r="4" fill="#00C896"/><text x="77.5" y="185" text-anchor="middle" fill="#e6edf3">1.0x</text><text x="77.5" y="368" text-anchor="middle" fill="#8b949e">1T</text><circle cx="95" cy="178.1118433270193" r="4" fill="#00C896"/><text x="95" y="168.1118433270193" text-anchor="middle" fill="#e6edf3">1.1x</text><text x="95" y="368" text-anchor="middle" fill="#8b949e">2T</text><circle cx="130" cy="173.49105408834882" r="4" fill="#00C896"/><text x="130" y="163.49105408834882" text-anchor="middle" fill="#e6edf3">1.1x</text><text x="130" y="368" text-anchor="middle" fill="#8b949e">4T</text><circle cx="200" cy="170.85009907429074" r="4" fill="#00C896"/><text x="200" y="160.85009907429074" text-anchor="middle" fill="#e6edf3">1.2x</text><text x="200" y="368" text-anchor="middle" fill="#8b949e">8T</text><circle cx="340" cy="170.68597506974277" r="4" fill="#00C896"/><text x="340" y="160.68597506974277" text-anchor="middle" fill="#e6edf3">1.2x</text><text x="340" y="368" text-anchor="middle" fill="#8b949e">16T</text><circle cx="480" cy="172.5947355060365" r="4" fill="#00C896"/><text x="480" y="162.5947355060365" text-anchor="middle" fill="#e6edf3">1.1x</text><text x="480" y="368" text-anchor="middle" fill="#8b949e">24T</text><circle cx="620" cy="170.8280805542746" r="4" fill="#00C896"/><text x="620" y="160.8280805542746" text-anchor="middle" fill="#e6edf3">1.2x</text><text x="620" y="368" text-anchor="middle" fill="#8b949e">32T</text></svg>