<svg xmlns="http://www.w3.org/2000/svg" width="640" height="400" font-family="ui-monospace,Consolas" font-size="12">
<text x="320.0" y="20" text-anchor="middle" fill="#e6edf3">small_n: speedup vs threads</text>
<rect width="640" height="400" fill="#161b22"/>
<line x1="60" y1="350.0" x2="620" y2="350.0" stroke="#30363d"/><text x="52" y="354.0" text-anchor="end" fill="#8b949e">0</text>
<line x1="60" y1="272.5" x2="620" y2="272.5" stroke="#30363d"/><text x="52" y="276.5" text-anchor="end" fill="#8b949e">0.5</text>
<line x1="60" y1="195.0" x2="620" y2="195.0" stroke="#30363d"/><text x="52" y="199.0" text-anchor="end" fill="#8b949e">1</text>
<line x1="60" y1="117.5" x2="620" y2="117.5" stroke="#30363d"/><text x="52" y="121.5" text-anchor="end" fill="#8b949e">1.5</text>
<line x1="60" y1="40.0" x2="620" y2="40.0" stroke="#30363d"/><text x="52" y="44.0" text-anchor="end" fill="#8b949e">2</text>
<line x1="77.5" y1="195.0" x2="620.0" y2="-4610.0" stroke="#E5D75A" stroke-dasharray="6 4" stroke-width="1.5"/>
<polyline points="77.5,195.0 95.0,184.1 130.0,198.2 200.0,200.0 340.0,209.2 480.0,219.7 620.0,124.2" fill="none" stroke="#00C896" stroke-width="2.5"/>
<circle cx="77.5" cy="195.0" r="4" fill="#00C896"/><text x="77.5" y="185.0" text-anchor="middle" fill="#e6edf3">1.0x</text>
<circle cx="95.0" cy="184.1" r="4" fill="#00C896"/><text x="95.0" y="174.1" text-anchor="middle" fill="#e6edf3">1.1x</text>
<circle cx="130.0" cy="198.2" r="4" fill="#00C896"/><text x="130.0" y="188.2" text-anchor="middle" fill="#e6edf3">1.0x</text>
<circle cx="200.0" cy="200.0" r="4" fill="#00C896"/><text x="200.0" y="190.0" text-anchor="middle" fill="#e6edf3">1.0x</text>
<circle cx="340.0" cy="209.2" r="4" fill="#00C896"/><text x="340.0" y="199.2" text-anchor="middle" fill="#e6edf3">0.9x</text>
<circle cx="480.0" cy="219.7" r="4" fill="#00C896"/><text x="480.0" y="209.7" text-anchor="middle" fill="#e6edf3">0.8x</text>
<circle cx="620.0" cy="124.2" r="4" fill="#00C896"/><text x="620.0" y="114.2" text-anchor="middle" fill="#e6edf3">1.5x</text>
<text x="77.5" y="368" text-anchor="middle" fill="#8b949e">1T</text>
<text x="95.0" y="368" text-anchor="middle" fill="#8b949e">2T</text>
<text x="130.0" y="368" text-anchor="middle" fill="#8b949e">4T</text>
<text x="200.0" y="368" text-anchor="middle" fill="#8b949e">8T</text>
<text x="340.0" y="368" text-anchor="middle" fill="#8b949e">16T</text>
<text x="480.0" y="368" text-anchor="middle" fill="#8b949e">24T</text>
<text x="620.0" y="368" text-anchor="middle" fill="#8b949e">32T</text>
<text x="320.0" y="392" text-anchor="middle" fill="#8b949e">threads</text>
</svg>